<svg width="660" height="640" viewBox="0 0 660 640" fill="none" xmlns="http://www.w3.org/2000/svg">
<rect width="660" height="640" fill="#A0C29B"/>
<path d="M579 320C579 458.128 467.462 570 330 570C192.538 570 81 458.128 81 320C81 181.872 192.538 70 330 70C467.462 70 579 181.872 579 320Z" stroke="#3E5858" stroke-width="32"/>
<path d="M305.591 253.945V138H353.189V253.945H305.591Z" fill="#3E5858" stroke="#3E5858"/>
<path d="M309.252 303.984C275.892 272.252 208.685 207.323 206.732 201.465L175 233.197L309.252 367.449H349.528L483.78 233.197L452.047 201.465L349.528 303.984H309.252Z" fill="#3E5858" stroke="#3E5858"/>
<path d="M310.472 413.827C277.113 382.094 209.905 317.165 207.953 311.307L176.22 343.039L310.472 477.291V592H350.748V477.291L485 343.039L453.268 311.307L350.748 413.827H310.472Z" fill="#3E5858" stroke="#3E5858"/>
</svg>
